<svg width="24" height="25" viewBox="0 0 24 25" fill="none" xmlns="http://www.w3.org/2000/svg">
<g clip-path="url(#clip0_2648_22278)">
<path d="M12 13.5C12.7956 13.5 13.5587 13.1839 14.1213 12.6213C14.6839 12.0587 15 11.2956 15 10.5C15 9.70435 14.6839 8.94129 14.1213 8.37868C13.5587 7.81607 12.7956 7.5 12 7.5C11.2044 7.5 10.4413 7.81607 9.87868 8.37868C9.31607 8.94129 9 9.70435 9 10.5C9 11.2956 9.31607 12.0587 9.87868 12.6213C10.4413 13.1839 11.2044 13.5 12 13.5Z" stroke="#475569" stroke-linecap="round" stroke-linejoin="round"/>
<path d="M12 3.5C19.2 3.5 21 5.3 21 12.5C21 19.7 19.2 21.5 12 21.5C4.8 21.5 3 19.7 3 12.5C3 5.3 4.8 3.5 12 3.5Z" stroke="#475569" stroke-linecap="round" stroke-linejoin="round"/>
<path d="M6 20.55V20.5C6 19.4391 6.42143 18.4217 7.17157 17.6716C7.92172 16.9214 8.93913 16.5 10 16.5H14C15.0609 16.5 16.0783 16.9214 16.8284 17.6716C17.5786 18.4217 18 19.4391 18 20.5V20.55" stroke="#475569" stroke-linecap="round" stroke-linejoin="round"/>
</g>
<defs>
<clipPath id="clip0_2648_22278">
<rect width="24" height="24" fill="white" transform="translate(0 0.5)"/>
</clipPath>
</defs>
</svg>
