<svg width="32" height="32" viewBox="0 0 32 32" fill="none" xmlns="http://www.w3.org/2000/svg">
<g clip-path="url(#clip0_2429_101284)">
<path d="M8.44042 10.667H23.5591C23.9436 10.6669 24.3235 10.75 24.6729 10.9106C25.0223 11.0711 25.3328 11.3053 25.5832 11.5971C25.8335 11.8889 26.0179 12.2314 26.1235 12.6011C26.2291 12.9708 26.2535 13.359 26.1951 13.739L24.5218 24.6083C24.3765 25.5529 23.8978 26.4143 23.1724 27.0365C22.447 27.6587 21.5228 28.0006 20.5671 28.0003H11.4311C10.4756 28.0003 9.55173 27.6582 8.8266 27.0361C8.10146 26.4139 7.62299 25.5527 7.47776 24.6083L5.80442 13.739C5.74598 13.359 5.77041 12.9708 5.87603 12.6011C5.98165 12.2314 6.16597 11.8889 6.41635 11.5971C6.66673 11.3053 6.97725 11.0711 7.32661 10.9106C7.67598 10.75 8.05593 10.6669 8.44042 10.667Z" stroke="#475569" stroke-width="1.25" stroke-linecap="round" stroke-linejoin="round"/>
<path d="M12 14.6667V8C12 6.93913 12.4214 5.92172 13.1716 5.17157C13.9217 4.42143 14.9391 4 16 4C17.0609 4 18.0783 4.42143 18.8284 5.17157C19.5786 5.92172 20 6.93913 20 8V14.6667" stroke="#475569" stroke-width="1.25" stroke-linecap="round" stroke-linejoin="round"/>
</g>
<defs>
<clipPath id="clip0_2429_101284">
<rect width="32" height="32" fill="white"/>
</clipPath>
</defs>
</svg>
