<svg width="32" height="32" viewBox="0 0 32 32" fill="none" xmlns="http://www.w3.org/2000/svg">
<path d="M6.375 13.5938V26.5C6.375 26.7321 6.46719 26.9546 6.63128 27.1187C6.79538 27.2828 7.01794 27.375 7.25 27.375H12.5V19.9375C12.5 19.5894 12.6383 19.2556 12.8844 19.0094C13.1306 18.7633 13.4644 18.625 13.8125 18.625H18.1875C18.5356 18.625 18.8694 18.7633 19.1156 19.0094C19.3617 19.2556 19.5 19.5894 19.5 19.9375V27.375H24.75C24.9821 27.375 25.2046 27.2828 25.3687 27.1187C25.5328 26.9546 25.625 26.7321 25.625 26.5V13.5938" stroke="#475569" stroke-width="1.25" stroke-linecap="round" stroke-linejoin="round"/>
<path d="M28.25 15.999L16.5955 4.84279C16.3221 4.55404 15.6828 4.55076 15.4045 4.84279L3.75 15.999" stroke="#475569" stroke-width="1.25" stroke-linecap="round" stroke-linejoin="round"/>
<path d="M23.875 11.7891V5.5H21.25V9.27344" stroke="#475569" stroke-width="1.25" stroke-linecap="round" stroke-linejoin="round"/>
</svg>
