<svg width="32" height="32" viewBox="0 0 32 32" fill="none" xmlns="http://www.w3.org/2000/svg">
<path d="M8 16.1663C7.72386 16.1663 7.5 16.3902 7.5 16.6663C7.5 16.9425 7.72386 17.1663 8 17.1663V16.1663ZM24 17.1663C24.2761 17.1663 24.5 16.9425 24.5 16.6663C24.5 16.3902 24.2761 16.1663 24 16.1663V17.1663ZM8 21.4997C7.72386 21.4997 7.5 21.7235 7.5 21.9997C7.5 22.2758 7.72386 22.4997 8 22.4997V21.4997ZM24 22.4997C24.2761 22.4997 24.5 22.2758 24.5 21.9997C24.5 21.7235 24.2761 21.4997 24 21.4997V22.4997ZM8 10.833C7.72386 10.833 7.5 11.0569 7.5 11.333C7.5 11.6092 7.72386 11.833 8 11.833V10.833ZM24 11.833C24.2761 11.833 24.5 11.6092 24.5 11.333C24.5 11.0569 24.2761 10.833 24 10.833V11.833ZM8 17.1663H24V16.1663H8V17.1663ZM8 22.4997H24V21.4997H8V22.4997ZM8 11.833H24V10.833H8V11.833Z" fill="#0F172A"/>
</svg>
