<svg width="32" height="32" viewBox="0 0 32 32" fill="none" xmlns="http://www.w3.org/2000/svg">
<g clip-path="url(#clip0_2429_101233)">
<path d="M18.6667 10.6663V7.99967C18.6667 7.29243 18.3857 6.61415 17.8856 6.11406C17.3855 5.61396 16.7072 5.33301 16 5.33301H6.66667C5.95942 5.33301 5.28115 5.61396 4.78105 6.11406C4.28095 6.61415 4 7.29243 4 7.99967V23.9997C4 24.7069 4.28095 25.3852 4.78105 25.8853C5.28115 26.3854 5.95942 26.6663 6.66667 26.6663H16C16.7072 26.6663 17.3855 26.3854 17.8856 25.8853C18.3857 25.3852 18.6667 24.7069 18.6667 23.9997V21.333" stroke="black" stroke-width="1.5" stroke-linecap="round" stroke-linejoin="round"/>
<path d="M12 16H28L24 12" stroke="black" stroke-width="1.5" stroke-linecap="round" stroke-linejoin="round"/>
<path d="M24 20L28 16" stroke="black" stroke-width="1.5" stroke-linecap="round" stroke-linejoin="round"/>
</g>
<defs>
<clipPath id="clip0_2429_101233">
<rect width="32" height="32" fill="white"/>
</clipPath>
</defs>
</svg>
