<svg width="24" height="24" viewBox="0 0 24 24" fill="none" xmlns="http://www.w3.org/2000/svg">
<path fill-rule="evenodd" clip-rule="evenodd" d="M6.80524 15.7137C5.9404 14.8306 5.35381 13.7131 5.11824 12.4997C4.88072 11.2829 5.00269 10.0233 5.46924 8.87469C5.93181 7.73253 6.72153 6.75251 7.73924 6.05769C9.80409 4.64744 12.5224 4.64744 14.5872 6.05769C15.605 6.75251 16.3947 7.73253 16.8572 8.87469C17.3238 10.0233 17.4458 11.2829 17.2082 12.4997C16.9727 13.7131 16.3861 14.8306 15.5212 15.7137C14.3759 16.889 12.8044 17.5519 11.1632 17.5519C9.52213 17.5519 7.95059 16.889 6.80524 15.7137V15.7137Z" stroke="#0F172A" stroke-linecap="round" stroke-linejoin="round"/>
<path d="M11.1963 7.45177C10.9217 7.48087 10.7227 7.72707 10.7518 8.00167C10.7809 8.27628 11.0271 8.4753 11.3017 8.4462L11.1963 7.45177ZM13.2516 9.59491C13.3592 9.8492 13.6527 9.96808 13.9069 9.86043C14.1612 9.75277 14.2801 9.45936 14.1725 9.20506L13.2516 9.59491ZM15.9653 15.2641C15.7698 15.069 15.4532 15.0693 15.2582 15.2647C15.0631 15.4602 15.0633 15.7768 15.2588 15.9719L15.9653 15.2641ZM18.6468 19.3539C18.8422 19.5489 19.1588 19.5487 19.3539 19.3532C19.549 19.1578 19.5487 18.8412 19.3533 18.6461L18.6468 19.3539ZM11.3017 8.4462C12.1337 8.35805 12.9254 8.82447 13.2516 9.59491L14.1725 9.20506C13.6746 8.02913 12.4662 7.31721 11.1963 7.45177L11.3017 8.4462ZM15.2588 15.9719L18.6468 19.3539L19.3533 18.6461L15.9653 15.2641L15.2588 15.9719Z" fill="#0F172A"/>
</svg>
