<svg width="33" height="37" viewBox="0 0 33 37" fill="none" xmlns="http://www.w3.org/2000/svg">
<g filter="url(#filter0_d_2429_101176)">
<path d="M13.8395 23.3742C14.6555 24.1889 14.1209 25.5849 12.9702 25.6489C12.2211 25.691 11.4715 25.5743 10.7706 25.3063C10.0698 25.0384 9.43351 24.6253 8.90353 24.0942C8.37281 23.5642 7.96008 22.9281 7.69239 22.2275C7.42469 21.5269 7.30808 20.7777 7.3502 20.0289C7.41153 18.9275 8.6902 18.3915 9.51553 19.0609L9.62486 19.1595L13.8395 23.3742Z" fill="black"/>
<path d="M27.7606 5.23845C29.0406 6.51845 29.2726 8.45178 28.4539 9.96778L28.3339 10.1718L28.3019 10.2198C28.755 11.8455 28.8165 13.5554 28.4814 15.2094C28.1462 16.8635 27.424 18.4146 26.3739 19.7358L26.1299 20.0331L25.8753 20.3238L23.1113 23.0864L23.0046 23.2358C22.4389 24.0589 22.2015 25.0639 22.3393 26.0531L22.3859 26.3211L22.4459 26.5678C22.7979 27.8371 21.3086 28.7611 20.3326 27.9691L20.2179 27.8651L5.13394 12.7811C4.16461 11.8118 5.11127 10.1878 6.43127 10.5531C6.99389 10.7091 7.58384 10.7401 8.15969 10.6438C8.73554 10.5475 9.28334 10.3263 9.76461 9.99578L9.91927 9.88111L12.7206 7.08111C14.0097 5.90771 15.5667 5.0681 17.2553 4.63576C18.944 4.20342 20.7129 4.19153 22.4073 4.60111L22.7779 4.69578L22.8273 4.66511C23.5245 4.23431 24.3372 4.02786 25.1555 4.07364C25.9739 4.11942 26.7584 4.41523 27.4033 4.92111L27.5899 5.07712L27.7606 5.23845Z" fill="black"/>
</g>
<defs>
<filter id="filter0_d_2429_101176" x="-3" y="0" width="40" height="40" filterUnits="userSpaceOnUse" color-interpolation-filters="sRGB">
<feFlood flood-opacity="0" result="BackgroundImageFix"/>
<feColorMatrix in="SourceAlpha" type="matrix" values="0 0 0 0 0 0 0 0 0 0 0 0 0 0 0 0 0 0 127 0" result="hardAlpha"/>
<feOffset dy="4"/>
<feGaussianBlur stdDeviation="2"/>
<feComposite in2="hardAlpha" operator="out"/>
<feColorMatrix type="matrix" values="0 0 0 0 0 0 0 0 0 0 0 0 0 0 0 0 0 0 0.25 0"/>
<feBlend mode="normal" in2="BackgroundImageFix" result="effect1_dropShadow_2429_101176"/>
<feBlend mode="normal" in="SourceGraphic" in2="effect1_dropShadow_2429_101176" result="shape"/>
</filter>
</defs>
</svg>
