<svg width="32" height="32" viewBox="0 0 32 32" fill="none" xmlns="http://www.w3.org/2000/svg">
<g clip-path="url(#clip0_2429_101160)">
<path d="M25.8195 6.18115C26.3194 6.68123 26.6002 7.35938 26.6002 8.06649C26.6002 8.77359 26.3194 9.45175 25.8195 9.95182C26.3905 11.5467 26.5167 13.2669 26.1846 14.928C25.8525 16.5891 25.0745 18.1285 23.9341 19.3812L21.1048 22.2078C20.5895 22.865 20.2358 23.634 20.072 24.4529C19.9083 25.2718 19.9392 26.1177 20.1621 26.9225L5.07812 11.8398C5.88272 12.0626 6.72837 12.0933 7.54701 11.9296C8.36565 11.7658 9.13443 11.4122 9.79146 10.8972L12.6195 8.06649C13.8721 6.92611 15.4115 6.14815 17.0726 5.81602C18.7338 5.48389 20.4539 5.61012 22.0488 6.18115C22.5489 5.68123 23.227 5.40039 23.9341 5.40039C24.6412 5.40039 25.3194 5.68123 25.8195 6.18115Z" stroke="#475569" stroke-width="1.25" stroke-linecap="round" stroke-linejoin="round"/>
<path d="M9.79012 16.5518L8.84745 17.4944C8.09724 18.2446 7.67578 19.2621 7.67578 20.3231C7.67578 21.384 8.09724 22.4015 8.84745 23.1518C9.59766 23.902 10.6152 24.3234 11.6761 24.3234C12.7371 24.3234 13.7546 23.902 14.5048 23.1518L15.4475 22.2091" stroke="#475569" stroke-width="1.25" stroke-linecap="round" stroke-linejoin="round"/>
</g>
<defs>
<clipPath id="clip0_2429_101160">
<rect width="32" height="32" fill="white"/>
</clipPath>
</defs>
</svg>
