<svg width="36" height="38" viewBox="0 0 36 38" fill="none" xmlns="http://www.w3.org/2000/svg">
<g filter="url(#filter0_d_2429_101278)">
<path d="M6 13.3343C6 14.56 6.24141 15.7737 6.71046 16.906C7.1795 18.0384 7.86699 19.0673 8.73367 19.934C9.60035 20.8007 10.6292 21.4881 11.7616 21.9572C12.894 22.4262 14.1077 22.6676 15.3333 22.6676C16.559 22.6676 17.7727 22.4262 18.905 21.9572C20.0374 21.4881 21.0663 20.8007 21.933 19.934C22.7997 19.0673 23.4872 18.0384 23.9562 16.906C24.4253 15.7737 24.6667 14.56 24.6667 13.3343C24.6667 12.1086 24.4253 10.895 23.9562 9.7626C23.4872 8.63023 22.7997 7.60133 21.933 6.73465C21.0663 5.86797 20.0374 5.18048 18.905 4.71143C17.7727 4.24239 16.559 4.00098 15.3333 4.00098C14.1077 4.00098 12.894 4.24239 11.7616 4.71143C10.6292 5.18048 9.60035 5.86797 8.73367 6.73465C7.86699 7.60133 7.1795 8.63023 6.71046 9.7626C6.24141 10.895 6 12.1086 6 13.3343Z" fill="white" stroke="black" stroke-width="3" stroke-linecap="round" stroke-linejoin="round"/>
<path d="M30 27.999L22 19.999" stroke="black" stroke-width="3" stroke-linecap="round" stroke-linejoin="round"/>
</g>
<defs>
<filter id="filter0_d_2429_101278" x="-2" y="0" width="40" height="40" filterUnits="userSpaceOnUse" color-interpolation-filters="sRGB">
<feFlood flood-opacity="0" result="BackgroundImageFix"/>
<feColorMatrix in="SourceAlpha" type="matrix" values="0 0 0 0 0 0 0 0 0 0 0 0 0 0 0 0 0 0 127 0" result="hardAlpha"/>
<feOffset dy="4"/>
<feGaussianBlur stdDeviation="2"/>
<feComposite in2="hardAlpha" operator="out"/>
<feColorMatrix type="matrix" values="0 0 0 0 0 0 0 0 0 0 0 0 0 0 0 0 0 0 0.25 0"/>
<feBlend mode="normal" in2="BackgroundImageFix" result="effect1_dropShadow_2429_101278"/>
<feBlend mode="normal" in="SourceGraphic" in2="effect1_dropShadow_2429_101278" result="shape"/>
</filter>
</defs>
</svg>
