<svg width="32" height="32" viewBox="0 0 32 32" fill="none" xmlns="http://www.w3.org/2000/svg">
<g clip-path="url(#clip0_69_22315)">
<path d="M13.7667 5.756C14.3347 3.41467 17.6653 3.41467 18.2333 5.756C18.3186 6.10773 18.4856 6.43437 18.7209 6.70933C18.9563 6.98429 19.2532 7.19981 19.5875 7.33833C19.9219 7.47685 20.2842 7.53447 20.645 7.50649C21.0059 7.47852 21.355 7.36574 21.664 7.17733C23.7213 5.924 26.0773 8.27867 24.824 10.3373C24.6359 10.6462 24.5233 10.9951 24.4954 11.3557C24.4674 11.7163 24.525 12.0784 24.6634 12.4125C24.8017 12.7467 25.017 13.0434 25.2916 13.2787C25.5663 13.514 25.8926 13.6812 26.244 13.7667C28.5853 14.3347 28.5853 17.6653 26.244 18.2333C25.8923 18.3186 25.5656 18.4856 25.2907 18.7209C25.0157 18.9563 24.8002 19.2532 24.6617 19.5875C24.5231 19.9219 24.4655 20.2842 24.4935 20.645C24.5215 21.0059 24.6343 21.355 24.8227 21.664C26.076 23.7213 23.7213 26.0773 21.6627 24.824C21.3538 24.6359 21.0049 24.5233 20.6443 24.4954C20.2837 24.4674 19.9216 24.525 19.5875 24.6634C19.2533 24.8017 18.9566 25.017 18.7213 25.2916C18.486 25.5663 18.3188 25.8926 18.2333 26.244C17.6653 28.5853 14.3347 28.5853 13.7667 26.244C13.6814 25.8923 13.5144 25.5656 13.2791 25.2907C13.0437 25.0157 12.7468 24.8002 12.4125 24.6617C12.0781 24.5231 11.7158 24.4655 11.355 24.4935C10.9941 24.5215 10.645 24.6343 10.336 24.8227C8.27867 26.076 5.92267 23.7213 7.176 21.6627C7.36413 21.3538 7.47673 21.0049 7.50464 20.6443C7.53256 20.2837 7.47499 19.9216 7.33663 19.5875C7.19827 19.2533 6.98301 18.9566 6.70836 18.7213C6.43371 18.486 6.10742 18.3188 5.756 18.2333C3.41467 17.6653 3.41467 14.3347 5.756 13.7667C6.10773 13.6814 6.43437 13.5144 6.70933 13.2791C6.98429 13.0437 7.19981 12.7468 7.33833 12.4125C7.47685 12.0781 7.53447 11.7158 7.50649 11.355C7.47852 10.9941 7.36574 10.645 7.17733 10.336C5.924 8.27867 8.27867 5.92267 10.3373 7.176C11.6707 7.98667 13.3987 7.26933 13.7667 5.756Z" stroke="black" stroke-width="1.33333" stroke-linecap="round" stroke-linejoin="round"/>
<g filter="url(#filter0_d_69_22315)">
<path d="M9.61197 9.61139C12.0961 10.7053 15.0169 9.49595 16.0006 6.9683C16.1956 7.465 16.4726 7.92715 16.8216 8.33487C17.3128 8.90888 17.9327 9.35878 18.6307 9.64795C19.3286 9.93713 20.085 10.0574 20.8383 9.99901C21.3751 9.95739 21.8996 9.82584 22.3901 9.61131C22.1758 10.1018 22.0444 10.6261 22.0028 11.1628C21.9445 11.9155 22.0647 12.6714 22.3536 13.3689C22.6424 14.0665 23.0918 14.6861 23.6651 15.1773C24.0733 15.527 24.5361 15.8046 25.0335 15.9999C24.5361 16.1949 24.0734 16.4722 23.6651 16.8216C23.0911 17.3128 22.6412 17.9327 22.352 18.6307C22.0629 19.3286 21.9426 20.085 22.001 20.8383C22.0426 21.3752 22.1742 21.8996 22.3887 22.3901C21.8982 22.1758 21.3739 22.0444 20.8372 22.0028C20.0845 21.9445 19.3286 22.0647 18.6311 22.3536C17.9335 22.6424 17.3139 23.0918 16.8227 23.6651C16.473 24.0733 16.1954 24.5361 16.0001 25.0335C15.8051 24.5361 15.5278 24.0734 15.1784 23.6651C14.6872 23.0911 14.0673 22.6412 13.3693 22.352C12.6714 22.0629 11.915 21.9426 11.1617 22.001C10.6248 22.0426 10.1004 22.1742 9.60987 22.3887C9.82423 21.8982 9.95565 21.3739 9.99719 20.8372C10.0555 20.0845 9.93528 19.3286 9.64644 18.6311C9.3576 17.9335 8.90824 17.3139 8.33488 16.8227C7.92672 16.473 7.46392 16.1954 6.96647 16.0001C7.46386 15.8051 7.92665 15.5278 8.33487 15.1784C8.90888 14.6872 9.35878 14.0673 9.64795 13.3693C9.93713 12.6714 10.0574 11.915 9.99901 11.1617C9.95743 10.6254 9.82611 10.1015 9.61197 9.61139Z" stroke="black" stroke-width="5" stroke-linecap="round" stroke-linejoin="round" shape-rendering="crispEdges"/>
</g>
<path d="M11 16C11 17.3261 11.5268 18.5979 12.4645 19.5355C13.4021 20.4732 14.6739 21 16 21C17.3261 21 18.5979 20.4732 19.5355 19.5355C20.4732 18.5979 21 17.3261 21 16C21 14.6739 20.4732 13.4021 19.5355 12.4645C18.5979 11.5268 17.3261 11 16 11C14.6739 11 13.4021 11.5268 12.4645 12.4645C11.5268 13.4021 11 14.6739 11 16Z" stroke="white" stroke-width="2" stroke-linecap="round" stroke-linejoin="round"/>
</g>
<defs>
<filter id="filter0_d_69_22315" x="0" y="4" width="32" height="32" filterUnits="userSpaceOnUse" color-interpolation-filters="sRGB">
<feFlood flood-opacity="0" result="BackgroundImageFix"/>
<feColorMatrix in="SourceAlpha" type="matrix" values="0 0 0 0 0 0 0 0 0 0 0 0 0 0 0 0 0 0 127 0" result="hardAlpha"/>
<feOffset dy="4"/>
<feGaussianBlur stdDeviation="2"/>
<feComposite in2="hardAlpha" operator="out"/>
<feColorMatrix type="matrix" values="0 0 0 0 0 0 0 0 0 0 0 0 0 0 0 0 0 0 0.25 0"/>
<feBlend mode="normal" in2="BackgroundImageFix" result="effect1_dropShadow_69_22315"/>
<feBlend mode="normal" in="SourceGraphic" in2="effect1_dropShadow_69_22315" result="shape"/>
</filter>
<clipPath id="clip0_69_22315">
<rect width="32" height="32" fill="white"/>
</clipPath>
</defs>
</svg>
