<svg width="24" height="24" viewBox="0 0 24 24" fill="none" xmlns="http://www.w3.org/2000/svg">
<path d="M13.5905 13.591L13.7874 14.0506C13.9023 14.0014 13.9946 13.9109 14.0461 13.797L13.5905 13.591ZM16.2243 7.76513L16.6799 7.9711C16.7657 7.78135 16.7249 7.5583 16.5775 7.4112C16.4301 7.26411 16.2069 7.22377 16.0174 7.30995L16.2243 7.76513ZM10.4085 10.409L10.2016 9.95379C10.0881 10.0054 9.99802 10.0975 9.94893 10.212L10.4085 10.409ZM8.022 15.9774L7.56243 15.7805C7.48189 15.9684 7.52388 16.1864 7.66844 16.331C7.81301 16.4756 8.03103 16.5175 8.21895 16.437L8.022 15.9774ZM20.5 12C20.5 16.6944 16.6944 20.5 12 20.5V21.5C17.2467 21.5 21.5 17.2467 21.5 12H20.5ZM12 20.5C7.30558 20.5 3.5 16.6944 3.5 12H2.5C2.5 17.2467 6.75329 21.5 12 21.5V20.5ZM3.5 12C3.5 7.30558 7.30558 3.5 12 3.5V2.5C6.75329 2.5 2.5 6.75329 2.5 12H3.5ZM12 3.5C16.6944 3.5 20.5 7.30558 20.5 12H21.5C21.5 6.75329 17.2467 2.5 12 2.5V3.5ZM14.0461 13.797L16.6799 7.9711L15.7687 7.55915L13.1349 13.3851L14.0461 13.797ZM16.0174 7.30995L10.2016 9.95379L10.6154 10.8641L16.4312 8.2203L16.0174 7.30995ZM9.94893 10.212L7.56243 15.7805L8.48157 16.1744L10.8681 10.6059L9.94893 10.212ZM8.21895 16.437L13.7874 14.0506L13.3935 13.1315L7.82505 15.5179L8.21895 16.437Z" fill="#475569"/>
</svg>
