<svg width="24" height="24" viewBox="0 0 24 24" fill="none" xmlns="http://www.w3.org/2000/svg">
<path d="M13.5 13.4999L15.75 11.2499M15.75 11.2499L13.5 8.99989M15.75 11.2499L10.5 11.2499C9.90327 11.2499 9.33098 11.4869 8.90902 11.9089C8.48706 12.3309 8.25001 12.9031 8.25001 13.4999V14.2499M1.65534 11.4696L11.4697 1.65522C11.7626 1.36232 12.2374 1.36232 12.5303 1.65522L22.3447 11.4696C22.6376 11.7624 22.6376 12.2373 22.3447 12.5302L12.5303 22.3446C12.2374 22.6375 11.7626 22.6374 11.4697 22.3446L1.65534 12.5302C1.36245 12.2373 1.36245 11.7625 1.65534 11.4696Z" stroke="#475569" stroke-width="1.5" stroke-linecap="round" stroke-linejoin="round"/>
</svg>
