<svg width="32" height="32" viewBox="0 0 32 32" fill="none" xmlns="http://www.w3.org/2000/svg">
<g clip-path="url(#clip0_3718_36737)">
<path d="M24.9906 21.7394L1.059 18.3761C0.386253 18.2815 -0.0824341 17.6595 0.0121284 16.9868L1.99588 2.8715C2.09044 2.19875 2.71244 1.73007 3.38513 1.82463L27.3167 5.188C27.9894 5.28257 28.4581 5.90457 28.3636 6.57725L26.3798 20.6926C26.2853 21.3653 25.6633 21.8339 24.9906 21.7394Z" fill="url(#paint0_linear_3718_36737)"/>
<path d="M24.9906 21.7394L1.059 18.3761C0.386253 18.2815 -0.0824341 17.6595 0.0121284 16.9868L1.99588 2.8715C2.09044 2.19875 2.71244 1.73007 3.38513 1.82463L27.3167 5.188C27.9894 5.28257 28.4581 5.90457 28.3636 6.57725L26.3798 20.6926C26.2853 21.3653 25.6633 21.8339 24.9906 21.7394Z" fill="url(#paint1_linear_3718_36737)"/>
<path d="M1.167 8.76953L0.0121271 16.9868C-0.0824354 17.6595 0.386315 18.2815 1.059 18.376L24.9906 21.7394C25.6633 21.834 26.2853 21.3652 26.3798 20.6925L27.5347 12.4753L1.167 8.76953Z" fill="url(#paint2_linear_3718_36737)"/>
<path d="M27.3167 5.18619L17.987 3.875L15.6609 20.4264L24.9906 21.7376C25.6633 21.8322 26.2853 21.3634 26.3798 20.6908L28.3636 6.57544C28.4581 5.90269 27.9894 5.28075 27.3167 5.18619Z" fill="url(#paint3_linear_3718_36737)"/>
<path d="M1.23999 8.2495L27.6077 11.9552L28.1874 7.83075L1.81968 4.125L1.23999 8.2495Z" fill="url(#paint4_linear_3718_36737)"/>
<path d="M12.396 11.6645L3.58668 10.4264C3.38149 10.3976 3.23855 10.2079 3.26736 10.0027C3.29618 9.7975 3.48593 9.65457 3.69111 9.68338L12.5005 10.9214C12.7057 10.9503 12.8486 11.14 12.8198 11.3452C12.7909 11.5504 12.6012 11.6933 12.396 11.6645Z" fill="url(#paint5_linear_3718_36737)"/>
<path d="M24.7519 13.4002L22.3817 13.0671C22.1765 13.0383 22.0336 12.8485 22.0624 12.6433C22.0912 12.4381 22.281 12.2952 22.4862 12.324L24.8563 12.6571C25.0615 12.6859 25.2045 12.8757 25.1757 13.0809C25.1468 13.2861 24.9571 13.429 24.7519 13.4002Z" fill="url(#paint6_linear_3718_36737)"/>
<path d="M7.67187 13.7045L3.38768 13.1024C3.08674 13.0601 2.87706 12.7818 2.91937 12.4809L3.02468 11.7316C3.06699 11.4306 3.34524 11.2209 3.64618 11.2632L7.93037 11.8654C8.23131 11.9077 8.44099 12.1859 8.39868 12.4869L8.29337 13.2362C8.25106 13.5371 7.97281 13.7467 7.67187 13.7045Z" fill="url(#paint7_linear_3718_36737)"/>
<path d="M7.67187 13.7045L3.38768 13.1024C3.08674 13.0601 2.87706 12.7818 2.91937 12.4809L3.02468 11.7316C3.06699 11.4306 3.34524 11.2209 3.64618 11.2632L7.93037 11.8654C8.23131 11.9077 8.44099 12.1859 8.39868 12.4869L8.29337 13.2362C8.25106 13.5371 7.97281 13.7467 7.67187 13.7045Z" fill="url(#paint8_linear_3718_36737)"/>
<path d="M7.67187 13.7045L3.38768 13.1024C3.08674 13.0601 2.87706 12.7818 2.91937 12.4809L3.02468 11.7316C3.06699 11.4306 3.34524 11.2209 3.64618 11.2632L7.93037 11.8654C8.23131 11.9077 8.44099 12.1859 8.39868 12.4869L8.29337 13.2362C8.25106 13.5371 7.97281 13.7467 7.67187 13.7045Z" fill="url(#paint9_linear_3718_36737)"/>
<path d="M31.088 23.89L7.74474 30.1448C7.08855 30.3206 6.41405 29.9312 6.23824 29.275L2.54905 15.5067C2.37324 14.8505 2.76261 14.176 3.4188 14.0002L26.7621 7.74534C27.4183 7.56953 28.0928 7.9589 28.2686 8.61509L31.9578 22.3835C32.1337 23.0397 31.7442 23.7142 31.088 23.89Z" fill="url(#paint10_linear_3718_36737)"/>
<path d="M4.09058 21.2588L6.23826 29.274C6.41408 29.9302 7.08858 30.3196 7.74476 30.1438L31.0881 23.8889C31.7443 23.7131 32.1337 23.0386 31.9578 22.3824L29.8101 14.3672L4.09058 21.2588Z" fill="url(#paint11_linear_3718_36737)"/>
<path d="M16.5911 23.3978L7.99826 25.7002C7.79813 25.7538 7.59238 25.6351 7.53876 25.435C7.48513 25.2348 7.60388 25.0291 7.80401 24.9755L16.3968 22.673C16.5969 22.6194 16.8027 22.7382 16.8563 22.9383C16.9099 23.1384 16.7912 23.3442 16.5911 23.3978Z" fill="url(#paint12_linear_3718_36737)"/>
<path d="M26.7621 7.74534L17.6617 10.1838L21.9877 26.3284L31.088 23.89C31.7442 23.7141 32.1336 23.0396 31.9577 22.3835L28.2685 8.61509C28.0927 7.95896 27.4182 7.56952 26.7621 7.74534Z" fill="url(#paint13_linear_3718_36737)"/>
<path d="M11.104 19.6191L7.50678 20.583C6.85322 20.7581 6.1814 20.3703 6.00628 19.7167L5.45697 17.6666C5.28184 17.013 5.66972 16.3412 6.32328 16.1661L9.92047 15.2022C10.574 15.0271 11.2458 15.415 11.421 16.0685L11.9703 18.1186C12.1453 18.7723 11.7575 19.4441 11.104 19.6191Z" fill="url(#paint14_linear_3718_36737)"/>
<path d="M11.104 19.6191L7.50678 20.583C6.85322 20.7581 6.1814 20.3703 6.00628 19.7167L5.45697 17.6666C5.28184 17.013 5.66972 16.3412 6.32328 16.1661L9.92047 15.2022C10.574 15.0271 11.2458 15.415 11.421 16.0685L11.9703 18.1186C12.1453 18.7723 11.7575 19.4441 11.104 19.6191Z" fill="url(#paint15_linear_3718_36737)"/>
<path d="M7.50677 20.5843L11.104 19.6205C11.7575 19.4453 12.1454 18.7735 11.9703 18.12L11.421 16.0699C11.3315 15.7358 11.1118 15.472 10.8316 15.3164L9.70702 17.2642C9.56552 17.5093 9.33246 17.6882 9.05909 17.7614L8.39434 17.9395C8.12096 18.0128 7.8879 18.1916 7.74646 18.4367L6.57715 20.4619C6.84865 20.6187 7.17996 20.6719 7.50677 20.5843Z" fill="url(#paint16_linear_3718_36737)"/>
<path d="M11.1039 19.6224L7.50673 20.5863C6.85317 20.7614 6.18136 20.3735 6.00623 19.72L5.45692 17.6699C5.36742 17.3358 5.42567 16.9975 5.59061 16.7227L7.53842 17.8472C7.78348 17.9887 8.07473 18.0271 8.34811 17.9538L9.01286 17.7757C9.28623 17.7025 9.57748 17.7408 9.82254 17.8823L11.8478 19.0517C11.691 19.3231 11.4307 19.5348 11.1039 19.6224Z" fill="url(#paint17_linear_3718_36737)"/>
<path d="M9.92047 15.2022L7.42297 15.8714L8.60647 20.2883L11.104 19.6191C11.7575 19.444 12.1454 18.7721 11.9703 18.1186L11.421 16.0685C11.2458 15.415 10.574 15.0271 9.92047 15.2022Z" fill="url(#paint18_linear_3718_36737)"/>
<path d="M15.0325 25.8675L8.50714 27.6159C8.30907 27.669 8.10545 27.5514 8.05239 27.3533L7.87639 26.6964C7.82332 26.4983 7.94089 26.2947 8.13895 26.2416L14.6643 24.4932C14.8624 24.4401 15.066 24.5577 15.1191 24.7558L15.2951 25.4127C15.3481 25.6108 15.2306 25.8144 15.0325 25.8675Z" fill="url(#paint19_linear_3718_36737)"/>
<path d="M19.694 24.6175L16.4313 25.4917C16.2333 25.5448 16.0296 25.4272 15.9766 25.2291L15.8006 24.5722C15.7475 24.3741 15.8651 24.1705 16.0631 24.1175L19.3258 23.2432C19.5239 23.1901 19.7275 23.3077 19.7806 23.5058L19.9566 24.1627C20.0096 24.3608 19.8921 24.5644 19.694 24.6175Z" fill="url(#paint20_linear_3718_36737)"/>
<path d="M24.4504 23.344L21.1877 24.2183C20.9896 24.2713 20.786 24.1538 20.7329 23.9557L20.5569 23.2988C20.5039 23.1007 20.6214 22.8971 20.8195 22.844L24.0822 21.9698C24.2802 21.9167 24.4839 22.0343 24.5369 22.2323L24.7129 22.8893C24.766 23.0873 24.6484 23.291 24.4504 23.344Z" fill="url(#paint21_linear_3718_36737)"/>
<path d="M27.3973 20.0313L25.4212 19.373C24.8903 19.1961 24.3758 19.6808 24.5207 20.2213L25.1145 22.4378C25.2593 22.9783 25.9472 23.1407 26.3185 22.7221L27.7007 21.1639C28.0352 20.7868 27.8755 20.1906 27.3973 20.0313Z" fill="url(#paint22_linear_3718_36737)"/>
<path d="M26.1587 20.3613L27.5409 18.8031C27.9122 18.3845 28.6001 18.5469 28.7449 19.0874L29.3388 21.3039C29.4836 21.8444 28.9692 22.3291 28.4383 22.1522L26.4622 21.4939C25.984 21.3346 25.8242 20.7384 26.1587 20.3613Z" fill="url(#paint23_linear_3718_36737)"/>
<path d="M26.1587 20.3613L27.5409 18.8031C27.9122 18.3845 28.6001 18.5469 28.7449 19.0874L29.3388 21.3039C29.4836 21.8444 28.9692 22.3291 28.4383 22.1522L26.4622 21.4939C25.984 21.3346 25.8242 20.7384 26.1587 20.3613Z" fill="url(#paint24_linear_3718_36737)"/>
<path d="M21.8604 13.4768L20.7768 13.7672C20.5787 13.8203 20.3751 13.7027 20.322 13.5046L20.146 12.8477C20.093 12.6496 20.2105 12.446 20.4086 12.393L21.4922 12.1026C21.6902 12.0495 21.8939 12.1671 21.9469 12.3651L22.1229 13.0221C22.176 13.2201 22.0584 13.4238 21.8604 13.4768Z" fill="url(#paint25_linear_3718_36737)"/>
<path d="M26.5219 12.2268L23.2592 13.1011C23.0611 13.1541 22.8575 13.0366 22.8045 12.8385L22.6285 12.1816C22.5754 11.9835 22.693 11.7799 22.891 11.7268L26.1537 10.8526C26.3518 10.7995 26.5554 10.9171 26.6085 11.1151L26.7845 11.7721C26.8375 11.9701 26.72 12.1738 26.5219 12.2268Z" fill="url(#paint26_linear_3718_36737)"/>
</g>
<defs>
<linearGradient id="paint0_linear_3718_36737" x1="9.41972" y1="1.0207" x2="17.463" y2="19.1693" gradientUnits="userSpaceOnUse">
<stop stop-color="#5A5A5A"/>
<stop offset="1" stop-color="#444444"/>
</linearGradient>
<linearGradient id="paint1_linear_3718_36737" x1="12.6873" y1="7.73488" x2="14.2791" y2="12.0279" gradientUnits="userSpaceOnUse">
<stop stop-color="#433F43" stop-opacity="0"/>
<stop offset="1" stop-color="#1A1A1A"/>
</linearGradient>
<linearGradient id="paint2_linear_3718_36737" x1="13.3665" y1="17.6136" x2="13.0646" y2="19.7638" gradientUnits="userSpaceOnUse">
<stop stop-color="#433F43" stop-opacity="0"/>
<stop offset="1" stop-color="#1A1A1A"/>
</linearGradient>
<linearGradient id="paint3_linear_3718_36737" x1="23.8565" y1="13.1317" x2="27.0799" y2="13.5843" gradientUnits="userSpaceOnUse">
<stop stop-color="#433F43" stop-opacity="0"/>
<stop offset="1" stop-color="#1A1A1A"/>
</linearGradient>
<linearGradient id="paint4_linear_3718_36737" x1="10.5041" y1="-17.4581" x2="17.0133" y2="21.9834" gradientUnits="userSpaceOnUse">
<stop stop-color="#433F43" stop-opacity="0"/>
<stop offset="1" stop-color="#1A1A1A"/>
</linearGradient>
<linearGradient id="paint5_linear_3718_36737" x1="6.84162" y1="3.3869" x2="8.70096" y2="14.6533" gradientUnits="userSpaceOnUse">
<stop stop-color="#433F43" stop-opacity="0"/>
<stop offset="1" stop-color="#1A1A1A"/>
</linearGradient>
<linearGradient id="paint6_linear_3718_36737" x1="23.0977" y1="9.72209" x2="23.8975" y2="14.5683" gradientUnits="userSpaceOnUse">
<stop stop-color="#433F43" stop-opacity="0"/>
<stop offset="1" stop-color="#1A1A1A"/>
</linearGradient>
<linearGradient id="paint7_linear_3718_36737" x1="5.63935" y1="11.2765" x2="5.68171" y2="13.7497" gradientUnits="userSpaceOnUse">
<stop stop-color="#F5FBFF"/>
<stop offset="1" stop-color="#DBD5EF"/>
</linearGradient>
<linearGradient id="paint8_linear_3718_36737" x1="5.61934" y1="12.7685" x2="5.78569" y2="11.5837" gradientUnits="userSpaceOnUse">
<stop stop-color="#DBD5EF" stop-opacity="0"/>
<stop offset="0.2853" stop-color="#D9D2EE" stop-opacity="0.285"/>
<stop offset="0.4739" stop-color="#D4C9E9" stop-opacity="0.474"/>
<stop offset="0.6346" stop-color="#CBBAE2" stop-opacity="0.635"/>
<stop offset="0.7795" stop-color="#BFA5D7" stop-opacity="0.78"/>
<stop offset="0.9126" stop-color="#AF8ACA" stop-opacity="0.913"/>
<stop offset="1" stop-color="#A274BF"/>
</linearGradient>
<linearGradient id="paint9_linear_3718_36737" x1="4.22337" y1="12.2774" x2="2.94361" y2="12.0977" gradientUnits="userSpaceOnUse">
<stop stop-color="#DBD5EF" stop-opacity="0"/>
<stop offset="0.2853" stop-color="#D9D2EE" stop-opacity="0.285"/>
<stop offset="0.4739" stop-color="#D4C9E9" stop-opacity="0.474"/>
<stop offset="0.6346" stop-color="#CBBAE2" stop-opacity="0.635"/>
<stop offset="0.7795" stop-color="#BFA5D7" stop-opacity="0.78"/>
<stop offset="0.9126" stop-color="#AF8ACA" stop-opacity="0.913"/>
<stop offset="1" stop-color="#A274BF"/>
</linearGradient>
<linearGradient id="paint10_linear_3718_36737" x1="8.66477" y1="10.9029" x2="23.1661" y2="24.4712" gradientUnits="userSpaceOnUse">
<stop stop-color="#5A5A5A"/>
<stop offset="1" stop-color="#444444"/>
</linearGradient>
<linearGradient id="paint11_linear_3718_36737" x1="18.7856" y1="24.639" x2="19.3481" y2="26.737" gradientUnits="userSpaceOnUse">
<stop stop-color="#433F43" stop-opacity="0"/>
<stop offset="1" stop-color="#1A1A1A"/>
</linearGradient>
<linearGradient id="paint12_linear_3718_36737" x1="8.24922" y1="17.9504" x2="14.3656" y2="27.5984" gradientUnits="userSpaceOnUse">
<stop stop-color="#433F43" stop-opacity="0"/>
<stop offset="1" stop-color="#1A1A1A"/>
</linearGradient>
<linearGradient id="paint13_linear_3718_36737" x1="26.6941" y1="16.4137" x2="29.8394" y2="15.5704" gradientUnits="userSpaceOnUse">
<stop stop-color="#433F43" stop-opacity="0"/>
<stop offset="1" stop-color="#1A1A1A"/>
</linearGradient>
<linearGradient id="paint14_linear_3718_36737" x1="7.45723" y1="16.1881" x2="10.2001" y2="19.898" gradientUnits="userSpaceOnUse">
<stop stop-color="#FEF0AE"/>
<stop offset="1" stop-color="#FAC600"/>
</linearGradient>
<linearGradient id="paint15_linear_3718_36737" x1="8.79723" y1="18.1905" x2="9.24768" y2="19.8706" gradientUnits="userSpaceOnUse">
<stop stop-color="#FE9738" stop-opacity="0"/>
<stop offset="1" stop-color="#FE9738"/>
</linearGradient>
<linearGradient id="paint16_linear_3718_36737" x1="6.46414" y1="15.3064" x2="11.7972" y2="21.3186" gradientUnits="userSpaceOnUse">
<stop stop-color="#FE9738" stop-opacity="0"/>
<stop offset="1" stop-color="#FE9738"/>
</linearGradient>
<linearGradient id="paint17_linear_3718_36737" x1="9.37038" y1="14.5365" x2="7.76039" y2="22.4102" gradientUnits="userSpaceOnUse">
<stop stop-color="#FE9738" stop-opacity="0"/>
<stop offset="1" stop-color="#FE9738"/>
</linearGradient>
<linearGradient id="paint18_linear_3718_36737" x1="10.022" y1="17.5425" x2="11.4199" y2="17.1677" gradientUnits="userSpaceOnUse">
<stop stop-color="#FE9738" stop-opacity="0"/>
<stop offset="1" stop-color="#FE9738"/>
</linearGradient>
<linearGradient id="paint19_linear_3718_36737" x1="11.5311" y1="25.8313" x2="11.7435" y2="26.6234" gradientUnits="userSpaceOnUse">
<stop stop-color="#F5FBFF"/>
<stop offset="1" stop-color="#DBD5EF"/>
</linearGradient>
<linearGradient id="paint20_linear_3718_36737" x1="17.8244" y1="24.143" x2="18.0368" y2="24.9351" gradientUnits="userSpaceOnUse">
<stop stop-color="#F5FBFF"/>
<stop offset="1" stop-color="#DBD5EF"/>
</linearGradient>
<linearGradient id="paint21_linear_3718_36737" x1="22.5811" y1="22.8687" x2="22.7935" y2="23.6608" gradientUnits="userSpaceOnUse">
<stop stop-color="#F5FBFF"/>
<stop offset="1" stop-color="#DBD5EF"/>
</linearGradient>
<linearGradient id="paint22_linear_3718_36737" x1="24.9594" y1="20.5906" x2="26.7627" y2="21.6314" gradientUnits="userSpaceOnUse">
<stop stop-color="#B3DAFE"/>
<stop offset="1" stop-color="#0182FC"/>
</linearGradient>
<linearGradient id="paint23_linear_3718_36737" x1="27.0555" y1="19.8572" x2="28.3205" y2="20.5873" gradientUnits="userSpaceOnUse">
<stop stop-color="#FFA1AE"/>
<stop offset="1" stop-color="#FF4565"/>
</linearGradient>
<linearGradient id="paint24_linear_3718_36737" x1="28.3" y1="20.3932" x2="28.9708" y2="20.2134" gradientUnits="userSpaceOnUse">
<stop stop-color="#FE0364" stop-opacity="0"/>
<stop offset="0.2343" stop-color="#F90362" stop-opacity="0.234"/>
<stop offset="0.5173" stop-color="#EA035B" stop-opacity="0.517"/>
<stop offset="0.8243" stop-color="#D20250" stop-opacity="0.824"/>
<stop offset="1" stop-color="#C00148"/>
</linearGradient>
<linearGradient id="paint25_linear_3718_36737" x1="21.0789" y1="12.7086" x2="21.2913" y2="13.5008" gradientUnits="userSpaceOnUse">
<stop stop-color="#F5FBFF"/>
<stop offset="1" stop-color="#DBD5EF"/>
</linearGradient>
<linearGradient id="paint26_linear_3718_36737" x1="24.6512" y1="11.7498" x2="24.8636" y2="12.542" gradientUnits="userSpaceOnUse">
<stop stop-color="#F5FBFF"/>
<stop offset="1" stop-color="#DBD5EF"/>
</linearGradient>
<clipPath id="clip0_3718_36737">
<rect width="32" height="32" fill="white"/>
</clipPath>
</defs>
</svg>
