<svg width="39" height="24" viewBox="0 0 39 24" fill="none" xmlns="http://www.w3.org/2000/svg">
<g clip-path="url(#clip0_3395_14850)">
<path d="M12.6016 24C19.229 24 24.6016 18.6274 24.6016 12C24.6016 5.37258 19.229 0 12.6016 0C5.97415 0 0.601562 5.37258 0.601562 12C0.601562 18.6274 5.97415 24 12.6016 24Z" fill="#F93232"/>
<path d="M27 0C24.3048 0 21.8256 0.9 19.824 2.4H19.8V2.4168C19.3248 2.7744 18.888 3.1776 18.4716 3.6H21.1284C21.498 3.9756 21.8388 4.3776 22.1544 4.8H17.436C17.1456 5.1828 16.8792 5.5824 16.6356 6H22.9524C23.178 6.3888 23.3904 6.7848 23.574 7.2H16.0248C15.8532 7.59 15.702 7.9896 15.5724 8.4H24.0252C24.15 8.7912 24.2484 9.1932 24.3348 9.6H15.2592C15.1788 9.9936 15.1116 10.392 15.0708 10.8H24.528C24.5748 11.1936 24.6 11.5932 24.6 12H15C15 12.4068 15.0324 12.804 15.072 13.2H24.5304C24.4848 13.6068 24.4188 14.0064 24.336 14.4H15.2604C15.3432 14.8092 15.45 15.2076 15.5736 15.6H24.0264C23.8968 16.0104 23.7456 16.41 23.574 16.8H16.0248C16.206 17.2128 16.41 17.6136 16.6356 18H22.9524C22.71 18.4176 22.44 18.8172 22.1496 19.2H17.436C17.7552 19.6224 18.0996 20.0244 18.4704 20.4H21.1284C20.7108 20.8236 20.2752 21.2256 19.8 21.5832C21.8064 23.094 24.294 24 27 24C33.6276 24 39 18.6264 39 12C39 5.3736 33.6276 0 27 0Z" fill="#FED049"/>
</g>
<defs>
<clipPath id="clip0_3395_14850">
<rect width="38.4" height="24" fill="white" transform="translate(0.601562)"/>
</clipPath>
</defs>
</svg>
