<svg width="43" height="24" viewBox="0 0 43 24" fill="none" xmlns="http://www.w3.org/2000/svg">
<path d="M18.0215 6L16.054 18.2438H19.1988L21.1651 6H18.0215ZM27.5075 10.9874C26.4085 10.4447 25.7348 10.0784 25.7348 9.52336C25.7482 9.01868 26.3045 8.50164 27.5467 8.50164C28.5685 8.47597 29.3194 8.71609 29.8891 8.95499L30.1745 9.08237L30.6021 6.52067C29.9809 6.28056 28.996 6.01599 27.7795 6.01599C24.6738 6.01599 22.487 7.63067 22.4734 9.94003C22.4478 11.6442 24.0391 12.5899 25.23 13.1572C26.4465 13.7391 26.8607 14.1164 26.8607 14.6335C26.8472 15.4273 25.877 15.7936 24.9716 15.7936C23.7171 15.7936 23.0433 15.6049 22.0204 15.1626L21.6062 14.9739L21.1665 17.6361C21.9052 17.9645 23.2638 18.2536 24.674 18.2683C27.9744 18.2683 30.122 16.6781 30.149 14.2169C30.1598 12.8668 29.3206 11.8327 27.5075 10.9874ZM38.6645 6.03789H36.2314C35.4816 6.03789 34.9119 6.25355 34.5873 7.02293L29.9159 18.2438H33.2163L34.1253 15.8144H37.8178L38.2895 18.2536H41.2004L38.6645 6.03789ZM35.0406 13.3628C35.1043 13.3689 36.3074 9.39706 36.3074 9.39706L37.2655 13.3628C37.2655 13.3628 35.6618 13.3628 35.0406 13.3628ZM13.4261 6L10.345 14.3185L10.0093 12.678C9.43962 10.7852 7.65348 8.72831 5.66016 7.70659L8.48159 18.2315H11.809L16.7536 6.00134H13.4261V6Z" fill="#2394BC"/>
<path d="M8.97578 7.57861C8.73566 6.64503 7.96991 6.01539 6.92991 6.00195H2.05025L2 6.22849C5.80647 7.16691 9.00144 10.0544 10.0379 12.7705L8.97578 7.57861Z" fill="#EFC75E"/>
</svg>
