<?xml version="1.0" ?><!DOCTYPE svg  PUBLIC '-//W3C//DTD SVG 1.1//EN'  'http://www.w3.org/Graphics/SVG/1.1/DTD/svg11.dtd'><svg enable-background="new 0 0 512 512" height="36px" id="Layer_1" version="1.1" viewBox="0 0 512 512" width="36px" xml:space="preserve" xmlns="http://www.w3.org/2000/svg" xmlns:xlink="http://www.w3.org/1999/xlink"><g><g><g><path d="M175.199,289.883c-0.325-1.325-0.744-3.03-1.258-5.115c-0.352,1.462-0.697,2.856-1.035,4.182     c-0.339,1.326-0.684,2.599-1.036,3.815l-5.968,19.61h16.118l-6.049-19.61C175.781,292.171,175.524,291.209,175.199,289.883z" fill="#333333"/><path d="M370.404,216.517c2.326-1.72,3.489-4.419,3.489-8.093c0-4.3-1.084-7.36-3.255-9.178     c-2.17-1.817-5.815-2.727-10.938-2.727h-4.69v22.578h4.339C364.394,219.097,368.077,218.237,370.404,216.517z" fill="#333333"/><path d="M122.887,289.498c-1.501-1.258-4.026-1.888-7.572-1.888h-3.248v15.631h3.004     c3.492,0,6.042-0.595,7.653-1.787c1.61-1.19,2.416-3.058,2.416-5.604C125.14,292.873,124.39,290.757,122.887,289.498z" fill="#333333"/><path d="M447.765,289.498c-1.501-1.258-4.026-1.888-7.571-1.888h-3.248v15.631h3.005     c3.491,0,6.042-0.595,7.651-1.787c1.61-1.19,2.416-3.058,2.416-5.604C450.018,292.873,449.267,290.757,447.765,289.498z" fill="#333333"/><path d="M481.641,97.198H29.909c-16.638,0-30.126,13.488-30.126,30.126v257.901     c0,16.638,13.488,30.126,30.126,30.126h451.732c16.638,0,30.126-13.488,30.126-30.126V127.324     C511.767,110.686,498.279,97.198,481.641,97.198z M410.077,178.515h52.604v18.825H432.89v14.896h28.09v18.414h-28.09v14.485     h29.791v19.235h-52.604V178.515z M333.078,178.515h24.454c9.577,0,16.253,0.44,20.026,1.319c3.773,0.879,7.027,2.356,9.765,4.427     c3.088,2.346,5.463,5.337,7.125,8.973c1.662,3.636,2.492,7.644,2.492,12.022c0,6.648-1.632,12.051-4.896,16.215     c-3.265,4.164-8.024,6.929-14.279,8.298l23.399,34.601h-26.449l-19.704-33.603v33.603h-21.933V178.515z M290.56,178.515h23.634     v85.855H290.56V178.515z M46.84,177.887h107.115v17H46.84V177.887z M46.84,210.885h107.115v16.999H46.84V210.885z M46.84,246.884     h107.115v17H46.84V246.884z M88.966,289.193H75.649v45.39H59.45v-45.39H46.133v-14.048h42.833V289.193z M188.435,334.583     l-3.004-10.637h-23.02l-3.085,10.637h-15.307h-0.812h-17.498l-13.642-23.264v23.264H96.883v-59.438h16.93     c6.631,0,11.252,0.305,13.864,0.915c2.612,0.608,4.866,1.63,6.76,3.065c2.139,1.623,3.783,3.694,4.933,6.211     c1.15,2.518,1.726,5.293,1.726,8.323c0,4.602-1.13,8.344-3.39,11.226c-2.261,2.883-5.556,4.797-9.887,5.746l15.662,23.157     l20.229-58.643h20.3l20.543,59.438H188.435z M187.348,264.37l-24.22-85.855h23.633l9.852,41.05     c0.469,2.112,0.929,4.223,1.378,6.334c0.449,2.111,0.87,4.281,1.261,6.509c0.352-1.642,0.733-3.362,1.144-5.161     c0.41-1.798,1.026-4.359,1.847-7.683l10.791-41.05h18.883l10.79,40.816c0.508,1.838,0.977,3.753,1.407,5.747     c0.43,1.994,0.88,4.281,1.349,6.861c0.587-3.05,1.084-5.561,1.496-7.536c0.41-1.974,0.811-3.666,1.202-5.072l10.086-40.816     h23.635l-24.279,85.855h-21.697l-10.615-36.653c-0.391-1.291-1.036-3.812-1.935-7.565c-0.392-1.68-0.704-2.991-0.938-3.929     c-0.196,0.821-0.469,1.975-0.821,3.461c-0.899,3.792-1.583,6.471-2.052,8.034l-10.439,36.653H187.348z M268.335,334.583h-15.55     l-22.452-30.692c-0.46-0.623-1.185-1.874-2.171-3.756c-0.989-1.881-2.064-4.094-3.228-6.638c0.325,2.491,0.561,4.695,0.711,6.618     c0.147,1.922,0.223,3.627,0.223,5.115v29.353h-15.631v-59.438h15.631l22.451,30.572c0.434,0.623,1.144,1.874,2.131,3.755     c0.988,1.881,2.078,4.122,3.269,6.72c-0.325-2.463-0.562-4.655-0.71-6.578c-0.149-1.922-0.224-3.627-0.224-5.115v-29.353h15.55     V334.583z M314.09,330.424c-4.141,3.828-9.662,5.743-16.563,5.743c-4.141,0-7.91-0.704-11.308-2.111     c-3.398-1.407-6.664-3.613-9.806-6.617l7.309-12.059c2.41,2.735,4.783,4.777,7.125,6.131c2.341,1.354,4.676,2.03,7.005,2.03     c2.165,0,3.944-0.582,5.338-1.747c1.393-1.163,2.091-2.639,2.091-4.425c0-1.975-0.603-3.498-1.806-4.566     c-1.206-1.07-3.933-2.172-8.182-3.31c-5.818-1.568-9.934-3.614-12.342-6.131c-2.41-2.517-3.613-5.967-3.613-10.354     c0-5.684,1.901-10.317,5.705-13.904c3.802-3.586,8.734-5.38,14.798-5.38c3.274,0,6.38,0.44,9.317,1.319     c2.936,0.88,5.718,2.213,8.343,3.999l-5.075,11.652c-1.84-1.568-3.729-2.754-5.663-3.553c-1.936-0.797-3.851-1.197-5.745-1.197     c-1.948,0-3.532,0.468-4.75,1.401c-1.218,0.934-1.827,2.131-1.827,3.592c0,1.488,0.534,2.681,1.604,3.573     c1.069,0.893,3.134,1.746,6.192,2.559l0.73,0.202c6.604,1.787,10.949,3.749,13.033,5.887c1.406,1.463,2.477,3.215,3.207,5.258     c0.73,2.044,1.097,4.31,1.097,6.8C320.303,321.525,318.232,326.593,314.09,330.424z M365.815,288.179H345.19v10.311h19.448     v12.749H345.19v23.344h-15.793v-59.438h36.418V288.179z M411.042,288.179h-20.624v10.311h19.448v12.749h-19.448v10.028h20.624     v13.315h-36.418v-59.438h36.418V288.179z M450.587,334.583l-13.642-23.264v23.264H421.76v-59.438h16.931     c6.632,0,11.252,0.305,13.864,0.915c2.612,0.608,4.866,1.63,6.761,3.065c2.139,1.623,3.781,3.694,4.933,6.211     c1.15,2.518,1.726,5.293,1.726,8.323c0,4.602-1.131,8.344-3.39,11.226c-2.261,2.883-5.555,4.797-9.886,5.746l16.198,23.952     H450.587z" fill="#333333"/></g></g></g></svg>