<svg width="48" height="48" viewBox="0 0 48 48" fill="none" xmlns="http://www.w3.org/2000/svg">
<rect x="4" y="4" width="40" height="40" rx="20" fill="#0F172A"/>
<path d="M20.308 29.144C19.596 29.144 18.972 28.952 18.436 28.568C17.9 28.176 17.48 27.636 17.176 26.948C16.88 26.252 16.732 25.444 16.732 24.524C16.732 23.596 16.88 22.788 17.176 22.1C17.48 21.412 17.896 20.876 18.424 20.492C18.96 20.108 19.584 19.916 20.296 19.916C21.008 19.916 21.628 20.108 22.156 20.492C22.692 20.876 23.108 21.416 23.404 22.112C23.708 22.8 23.86 23.604 23.86 24.524C23.86 25.444 23.712 26.252 23.416 26.948C23.12 27.636 22.704 28.176 22.168 28.568C21.64 28.952 21.02 29.144 20.308 29.144ZM20.308 27.848C20.748 27.848 21.128 27.712 21.448 27.44C21.768 27.168 22.016 26.784 22.192 26.288C22.368 25.792 22.456 25.204 22.456 24.524C22.456 23.844 22.368 23.256 22.192 22.76C22.016 22.264 21.768 21.88 21.448 21.608C21.128 21.336 20.744 21.2 20.296 21.2C19.856 21.2 19.476 21.336 19.156 21.608C18.836 21.88 18.588 22.264 18.412 22.76C18.236 23.256 18.148 23.844 18.148 24.524C18.148 25.196 18.236 25.784 18.412 26.288C18.588 26.784 18.836 27.168 19.156 27.44C19.484 27.712 19.868 27.848 20.308 27.848ZM25.1898 29V27.98L27.6378 25.364C28.1178 24.852 28.4938 24.44 28.7658 24.128C29.0458 23.808 29.2458 23.528 29.3658 23.288C29.4938 23.048 29.5578 22.796 29.5578 22.532C29.5578 22.1 29.4258 21.768 29.1618 21.536C28.8978 21.296 28.5578 21.176 28.1418 21.176C27.7098 21.176 27.3378 21.3 27.0258 21.548C26.7138 21.788 26.4978 22.14 26.3778 22.604L25.1298 22.244C25.2258 21.772 25.4178 21.364 25.7058 21.02C25.9938 20.668 26.3458 20.396 26.7618 20.204C27.1858 20.012 27.6418 19.916 28.1298 19.916C28.6978 19.916 29.1938 20.024 29.6178 20.24C30.0418 20.448 30.3698 20.74 30.6018 21.116C30.8418 21.492 30.9618 21.928 30.9618 22.424C30.9618 22.752 30.8978 23.072 30.7698 23.384C30.6498 23.688 30.4618 24.012 30.2058 24.356C29.9498 24.692 29.6218 25.072 29.2218 25.496L27.0618 27.8H31.1298V29H25.1898Z" fill="white"/>
<rect x="0.5" y="0.5" width="47" height="47" rx="23.5" stroke="#0F172A"/>
</svg>
