<svg width="48" height="48" viewBox="0 0 48 48" fill="none" xmlns="http://www.w3.org/2000/svg">
<g filter="url(#filter0_d_2827_67192)">
<rect x="4" y="4" width="40" height="40" rx="20" fill="white"/>
<path d="M20.308 29.144C19.596 29.144 18.972 28.952 18.436 28.568C17.9 28.176 17.48 27.636 17.176 26.948C16.88 26.252 16.732 25.444 16.732 24.524C16.732 23.596 16.88 22.788 17.176 22.1C17.48 21.412 17.896 20.876 18.424 20.492C18.96 20.108 19.584 19.916 20.296 19.916C21.008 19.916 21.628 20.108 22.156 20.492C22.692 20.876 23.108 21.416 23.404 22.112C23.708 22.8 23.86 23.604 23.86 24.524C23.86 25.444 23.712 26.252 23.416 26.948C23.12 27.636 22.704 28.176 22.168 28.568C21.64 28.952 21.02 29.144 20.308 29.144ZM20.308 27.848C20.748 27.848 21.128 27.712 21.448 27.44C21.768 27.168 22.016 26.784 22.192 26.288C22.368 25.792 22.456 25.204 22.456 24.524C22.456 23.844 22.368 23.256 22.192 22.76C22.016 22.264 21.768 21.88 21.448 21.608C21.128 21.336 20.744 21.2 20.296 21.2C19.856 21.2 19.476 21.336 19.156 21.608C18.836 21.88 18.588 22.264 18.412 22.76C18.236 23.256 18.148 23.844 18.148 24.524C18.148 25.196 18.236 25.784 18.412 26.288C18.588 26.784 18.836 27.168 19.156 27.44C19.484 27.712 19.868 27.848 20.308 27.848ZM28.1058 29.144C27.6258 29.144 27.1738 29.056 26.7498 28.88C26.3338 28.704 25.9738 28.456 25.6698 28.136C25.3738 27.816 25.1618 27.44 25.0338 27.008L26.2338 26.552C26.3938 26.976 26.6378 27.304 26.9658 27.536C27.2938 27.768 27.6738 27.884 28.1058 27.884C28.4578 27.884 28.7618 27.816 29.0178 27.68C29.2818 27.544 29.4858 27.352 29.6298 27.104C29.7818 26.856 29.8578 26.556 29.8578 26.204C29.8578 25.86 29.7818 25.564 29.6298 25.316C29.4858 25.068 29.2818 24.88 29.0178 24.752C28.7618 24.624 28.4578 24.56 28.1058 24.56C27.9618 24.56 27.8138 24.572 27.6618 24.596C27.5178 24.62 27.3898 24.652 27.2778 24.692L26.9658 24.032L29.3178 21.26H25.5138V20.06H30.9018V21.2L28.5978 23.96L28.5618 23.504C29.0978 23.512 29.5698 23.632 29.9778 23.864C30.3858 24.088 30.7018 24.4 30.9258 24.8C31.1578 25.192 31.2738 25.648 31.2738 26.168C31.2738 26.728 31.1378 27.236 30.8658 27.692C30.5938 28.14 30.2178 28.496 29.7378 28.76C29.2658 29.016 28.7218 29.144 28.1058 29.144Z" fill="#F1F5F9"/>
</g>
<rect x="0.5" y="0.5" width="47" height="47" rx="23.5" stroke="#F1F5F9"/>
<defs>
<filter id="filter0_d_2827_67192" x="2" y="3" width="44" height="44" filterUnits="userSpaceOnUse" color-interpolation-filters="sRGB">
<feFlood flood-opacity="0" result="BackgroundImageFix"/>
<feColorMatrix in="SourceAlpha" type="matrix" values="0 0 0 0 0 0 0 0 0 0 0 0 0 0 0 0 0 0 127 0" result="hardAlpha"/>
<feOffset dy="1"/>
<feGaussianBlur stdDeviation="1"/>
<feColorMatrix type="matrix" values="0 0 0 0 0 0 0 0 0 0 0 0 0 0 0 0 0 0 0.07 0"/>
<feBlend mode="normal" in2="BackgroundImageFix" result="effect1_dropShadow_2827_67192"/>
<feBlend mode="normal" in="SourceGraphic" in2="effect1_dropShadow_2827_67192" result="shape"/>
</filter>
</defs>
</svg>
