<svg width="24" height="24" viewBox="0 0 24 24" fill="none" xmlns="http://www.w3.org/2000/svg">
<path d="M11.4 2.0195C6.62 2.3295 3 6.5195 3 11.3095V17.9995C3 19.6595 4.34 20.9995 6 20.9995H7C8.1 20.9995 9 20.0995 9 18.9995V14.9995C9 13.8995 8.1 12.9995 7 12.9995H5V11.2895C5 7.4495 7.96 4.1095 11.79 3.9995C15.76 3.8895 19 7.0595 19 10.9995V12.9995H17C15.9 12.9995 15 13.8995 15 14.9995V18.9995C15 20.0995 15.9 20.9995 17 20.9995H18C19.66 20.9995 21 19.6595 21 17.9995V10.9995C21 5.8295 16.64 1.6795 11.4 2.0195Z" fill="black"/>
</svg>
