<svg width="24" height="24" viewBox="0 0 24 24" fill="none" xmlns="http://www.w3.org/2000/svg">
<path d="M3.3757 8.00567C5.79946 3.5276 11.4178 1.95628 15.7999 4.48628L16.6949 2.93609C16.9199 2.54638 17.4976 2.62585 17.6061 3.05798L18.6359 6.87419C18.7091 7.1474 18.5541 7.41587 18.2809 7.48907L14.4611 8.50528C14.0326 8.62741 13.6799 8.15822 13.8999 7.77717L14.7999 6.21833C11.4224 4.26833 7.10445 5.44729 5.18775 8.86711C3.37105 12.1137 4.51671 16.3894 7.71333 18.2927C11.0745 20.291 15.4121 19.158 17.3621 15.7805C18.1671 14.3862 18.4358 12.8208 18.2204 11.3339C18.1519 10.8325 18.4579 10.3625 18.9497 10.2308C19.5321 10.082 20.1233 10.458 20.2087 11.05C20.4793 12.9614 20.1342 14.9792 19.0942 16.7805C16.5692 21.1539 10.9128 22.611 6.57476 19.9447C2.5781 17.4872 1.14328 12.1323 3.3757 8.00567Z" fill="black"/>
</svg>
