<svg width="40" height="41" viewBox="0 0 40 41" fill="none" xmlns="http://www.w3.org/2000/svg">
<path d="M7.5 6.75L32.5 34.25M24.2042 25.1247C22.9777 26.2395 21.3585 26.8215 19.7029 26.7426C18.0472 26.6637 16.4907 25.9303 15.3758 24.7039C14.2608 23.4774 13.6787 21.8583 13.7574 20.2026C13.8362 18.547 14.5694 16.9904 15.7958 15.8753M11.5616 11.2177C5.19144 14.4436 2.5 20.5 2.5 20.5C2.5 20.5 7.5 31.7488 20 31.7488C22.9287 31.7721 25.8209 31.0975 28.4371 29.7809M32.5952 26.9218C36.0018 23.8707 37.5 20.5 37.5 20.5C37.5 20.5 32.5 9.24878 20 9.24878C18.9174 9.24701 17.8365 9.33503 16.7684 9.51193M21.1762 14.3606C22.5045 14.6157 23.7144 15.2946 24.6243 16.2955C25.5342 17.2964 26.095 18.5653 26.2227 19.912" stroke="white" stroke-width="2" stroke-linecap="round" stroke-linejoin="round"/>
</svg>
